<svg width="15" height="14" viewBox="0 0 15 14" fill="none" xmlns="http://www.w3.org/2000/svg">
<path fill-rule="evenodd" clip-rule="evenodd" d="M5.90006 11.327H0.649231C0.304231 11.327 0.024231 11.047 0.024231 10.702C0.024231 10.357 0.304231 10.077 0.649231 10.077H5.90006C6.24506 10.077 6.52506 10.357 6.52506 10.702C6.52506 11.047 6.24506 11.327 5.90006 11.327" fill="white"/>
<path fill-rule="evenodd" clip-rule="evenodd" d="M13.4924 3.25H8.24243C7.89743 3.25 7.61743 2.97 7.61743 2.625C7.61743 2.28 7.89743 2 8.24243 2H13.4924C13.8374 2 14.1174 2.28 14.1174 2.625C14.1174 2.97 13.8374 3.25 13.4924 3.25" fill="white"/>
<mask id="mask0_2420_232" style="mask-type:luminance" maskUnits="userSpaceOnUse" x="0" y="0" width="6" height="6">
<path fill-rule="evenodd" clip-rule="evenodd" d="M0 0H5.18817V5.15967H0V0Z" fill="white"/>
</mask>
<g mask="url(#mask0_2420_232)">
<path fill-rule="evenodd" clip-rule="evenodd" d="M2.59398 1.24966C1.85315 1.24966 1.24982 1.84633 1.24982 2.5805C1.24982 3.31383 1.85315 3.90966 2.59398 3.90966C3.33565 3.90966 3.93815 3.31383 3.93815 2.5805C3.93815 1.84633 3.33565 1.24966 2.59398 1.24966M2.59398 5.15966C1.16398 5.15966 -0.000183105 4.003 -0.000183105 2.5805C-0.000183105 1.158 1.16398 -0.000335693 2.59398 -0.000335693C4.02482 -0.000335693 5.18815 1.158 5.18815 2.5805C5.18815 4.003 4.02482 5.15966 2.59398 5.15966" fill="white"/>
</g>
<path fill-rule="evenodd" clip-rule="evenodd" d="M11.9898 9.33967C11.2481 9.33967 10.6448 9.93634 10.6448 10.6697C10.6448 11.4038 11.2481 11.9997 11.9898 11.9997C12.7306 11.9997 13.3331 11.4038 13.3331 10.6697C13.3331 9.93634 12.7306 9.33967 11.9898 9.33967M11.9898 13.2497C10.5589 13.2497 9.39478 12.0922 9.39478 10.6697C9.39478 9.24717 10.5589 8.08967 11.9898 8.08967C13.4198 8.08967 14.5831 9.24717 14.5831 10.6697C14.5831 12.0922 13.4198 13.2497 11.9898 13.2497" fill="white"/>
</svg>
